<svg width="25" height="20" viewBox="0 0 25 20" fill="none" xmlns="http://www.w3.org/2000/svg">
<path d="M24.3627 18.1986V13.7508C24.3627 12.3961 22.7372 11.6736 21.7437 12.6219L17.0024 17.0697C15.9639 18.0405 16.6638 19.7564 18.0636 19.7564H22.8049C23.6854 19.7564 24.3627 19.0565 24.3627 18.1986Z" fill="#4E4E4E"/>
<path d="M1.9436 19.7564H6.6849C8.08471 19.7564 8.78461 18.0405 7.74604 17.0697L3.00475 12.6219C2.01133 11.6962 0.385742 12.3961 0.385742 13.7508V18.1986C0.385742 19.0565 1.06307 19.7564 1.9436 19.7564Z" fill="#4E4E4E"/>
<path d="M11.3133 8.89659L3.00475 1.08473C2.01133 0.159051 0.385742 0.858957 0.385742 2.21361V6.70656C0.385742 7.13553 0.566363 7.54193 0.88245 7.83544L11.3133 17.6567C11.9229 18.2211 12.8486 18.2211 13.4582 17.6567L23.889 7.83544C24.2051 7.54193 24.3857 7.13553 24.3857 6.70656V2.21361C24.3857 0.858957 22.7602 0.136473 21.7667 1.08473L13.4356 8.89659C12.8486 9.46103 11.9003 9.46103 11.3133 8.89659Z" fill="#4E4E4E"/>
</svg>
