<svg width="24" height="24" viewBox="0 0 24 24" fill="none" xmlns="http://www.w3.org/2000/svg">
<path d="M12.2288 16.1186C11.9616 16.1191 11.7026 16.0261 11.4968 15.8555L4.63455 10.137C4.14818 9.73273 4.08161 9.01073 4.48587 8.52436C4.89013 8.03799 5.61213 7.97142 6.0985 8.37568L12.2288 13.4995L18.3591 8.55867C18.5953 8.36679 18.8983 8.27701 19.2011 8.30921C19.5037 8.34141 19.7811 8.49293 19.9717 8.73023C20.1835 8.96796 20.2866 9.28319 20.2561 9.60009C20.2258 9.91699 20.0647 10.2069 19.8116 10.4L12.9493 15.9242C12.7377 16.0677 12.484 16.1362 12.2288 16.1186Z" fill="#212B36"/>
</svg>
