<svg width="20" height="20" viewBox="0 0 20 20" fill="none" xmlns="http://www.w3.org/2000/svg">
<g id="icons/ic_call">
<path id="shape" d="M14.5003 18.3333C7.41648 18.3241 1.67617 12.5838 1.66699 5.49993C1.66699 3.38284 3.38323 1.6666 5.50033 1.6666C5.71561 1.66496 5.93053 1.6845 6.14199 1.72493C6.34642 1.75518 6.54738 1.80542 6.74199 1.87493C7.02049 1.97265 7.22652 2.21038 7.28366 2.49993L8.42533 7.49993C8.48785 7.7757 8.40628 8.06435 8.20866 8.2666C8.10033 8.38327 8.09199 8.3916 7.06699 8.92493C7.88782 10.7256 9.32799 12.1717 11.1253 12.9999C11.667 11.9666 11.6753 11.9583 11.792 11.8499C11.9942 11.6523 12.2829 11.5707 12.5587 11.6333L17.5587 12.7749C17.8387 12.8399 18.0655 13.0446 18.1587 13.3166C18.229 13.5144 18.282 13.7179 18.317 13.9249C18.3505 14.1344 18.3673 14.3462 18.367 14.5583C18.335 16.6656 16.6078 18.3518 14.5003 18.3333V18.3333Z" fill="#637381"/>
</g>
</svg>
