<svg width="11" height="11" viewBox="0 0 11 11" fill="none" xmlns="http://www.w3.org/2000/svg">
<path d="M7.16981 5.99528L10.7485 2.42469C11.0748 2.09833 11.0748 1.56919 10.7485 1.24282C10.4221 0.916456 9.89302 0.916456 9.56667 1.24282L5.99634 4.82173L2.42601 1.24282C2.09967 0.916456 1.57057 0.916456 1.24422 1.24282C0.917882 1.56919 0.917882 2.09833 1.24422 2.42469L4.82288 5.99528L1.24422 9.56586C1.08667 9.72214 0.998047 9.93487 0.998047 10.1568C0.998047 10.3787 1.08667 10.5915 1.24422 10.7477C1.40049 10.9053 1.61321 10.9939 1.83512 10.9939C2.05703 10.9939 2.26974 10.9053 2.42601 10.7477L5.99634 7.16883L9.56667 10.7477C9.72294 10.9053 9.93566 10.9939 10.1576 10.9939C10.3795 10.9939 10.5922 10.9053 10.7485 10.7477C10.906 10.5915 10.9946 10.3787 10.9946 10.1568C10.9946 9.93487 10.906 9.72214 10.7485 9.56586L7.16981 5.99528Z" fill="black"/>
</svg>
