<svg width="22" height="20" viewBox="0 0 22 20" fill="none" xmlns="http://www.w3.org/2000/svg">
<path fill-rule="evenodd" clip-rule="evenodd" d="M21.5601 15.2999L13.8901 2.57994C13.2598 1.59394 12.1703 0.997314 11.0001 0.997314C9.82987 0.997314 8.74038 1.59394 8.1101 2.57994L0.440101 15.2999C-0.111353 16.2192 -0.130414 17.3628 0.390101 18.2999C0.992074 19.3551 2.11533 20.0046 3.3301 19.9999H18.6701C19.8766 20.0128 20.9979 19.3797 21.6101 18.3399C22.1462 17.3926 22.1271 16.2292 21.5601 15.2999ZM11.0001 15.9999C10.4478 15.9999 10.0001 15.5522 10.0001 14.9999C10.0001 14.4477 10.4478 13.9999 11.0001 13.9999C11.5524 13.9999 12.0001 14.4477 12.0001 14.9999C12.0001 15.5522 11.5524 15.9999 11.0001 15.9999ZM11.0001 12.9999C11.5524 12.9999 12.0001 12.5522 12.0001 11.9999V7.99994C12.0001 7.44765 11.5524 6.99994 11.0001 6.99994C10.4478 6.99994 10.0001 7.44765 10.0001 7.99994V11.9999C10.0001 12.5522 10.4478 12.9999 11.0001 12.9999Z" fill="black"/>
</svg>
