<svg width="24" height="14" viewBox="0 0 24 14" fill="none" xmlns="http://www.w3.org/2000/svg">
<path d="M21.3377 5.65827C19.0433 1.5532 16.6716 -2.31438 13.9471 3.359C13.8382 3.57209 13.738 3.84391 13.6354 4.12196C13.3869 4.7956 13.125 5.50578 12.6942 5.50578V5.49858C12.2635 5.49858 12.0016 4.78845 11.7531 4.11484C11.6506 3.83676 11.5503 3.56491 11.4414 3.3518C8.71686 -2.32158 6.34514 1.546 4.05072 5.65106L3.88642 5.94525C3.77362 6.1471 3.66641 6.33892 3.57025 6.51289L3.58768 6.50164L0 12.8243C1.44454 13.7184 3.31516 13.6846 4.81992 12.9614C5.53568 12.6653 6.11767 12.152 6.65115 11.474C6.93407 11.1146 7.51316 10.12 8.3885 8.49013C8.55291 8.80976 8.71374 9.1413 8.87542 9.4746C9.82206 11.4261 10.798 13.4379 12.6942 13.4739V13.4811C14.5905 13.4451 15.5664 11.4332 16.5131 9.48175C17.7174 6.99911 18.8742 4.61427 21.8182 6.52C21.7195 6.34133 21.6091 6.14389 21.4929 5.93597L21.4922 5.93481L21.3377 5.65827Z" fill="black"/>
<path d="M24 11.0471C24 12.3913 22.9343 13.4811 21.6198 13.4811C20.3053 13.4811 19.2397 12.3913 19.2397 11.0471C19.2397 9.70295 20.3053 8.61319 21.6198 8.61319C22.9343 8.61319 24 9.70295 24 11.0471Z" fill="black"/>
</svg>
